<svg width="16" height="16" viewBox="0 0 16 16" fill="none" xmlns="http://www.w3.org/2000/svg">
<path fill-rule="evenodd" clip-rule="evenodd" d="M6.67928 2.49258C9.66939 -0.497527 14.5173 -0.497527 17.5074 2.49258C20.4975 5.48269 20.4975 10.3306 17.5074 13.3207C15.5214 15.3068 12.716 15.9728 10.1823 15.3221C10.0324 15.2836 9.91806 15.3287 9.86226 15.3845L6.14989 19.0968C5.67087 19.5759 5.00007 19.8112 4.32678 19.7364L2.23819 19.5043C1.84626 19.4607 1.48082 19.2851 1.20197 19.0063L0.993756 18.798C0.714909 18.5192 0.539269 18.1537 0.49572 17.7618L0.263654 15.6732C0.188843 14.9999 0.424148 14.3291 0.903167 13.8501L4.61526 10.138C4.67127 10.082 4.7163 9.96723 4.67789 9.81766C4.02725 7.28401 4.69321 4.47865 6.67928 2.49258ZM16.4468 3.55324C14.0424 1.14892 10.1443 1.14892 7.73994 3.55324C6.14413 5.14906 5.60656 7.4033 6.13075 9.44457C6.28182 10.0329 6.15857 10.716 5.67592 11.1987L1.96383 14.9108C1.80702 15.0676 1.72999 15.2872 1.75448 15.5076L1.98655 17.5962C1.99248 17.6496 2.01642 17.6994 2.05442 17.7374L2.26263 17.9456C2.30063 17.9836 2.35043 18.0075 2.40384 18.0135L4.49243 18.2455C4.71284 18.27 4.93242 18.193 5.08923 18.0362L5.79638 17.329L4.58351 16.1294C4.28901 15.8382 4.2864 15.3633 4.57768 15.0688C4.86896 14.7743 5.34382 14.7717 5.63832 15.063L6.85705 16.2684L8.8016 14.3238C9.28447 13.8409 9.96748 13.7183 10.5554 13.8693C12.5967 14.3934 14.851 13.8559 16.4468 12.2601C18.8511 9.85574 18.8511 5.95756 16.4468 3.55324ZM10.0555 6.05546C11.1294 4.98151 12.8706 4.98151 13.9445 6.05546C15.0185 7.1294 15.0185 8.8706 13.9445 9.94454C12.8706 11.0185 11.1294 11.0185 10.0555 9.94454C8.98152 8.8706 8.98152 7.1294 10.0555 6.05546ZM12.8839 7.11612C12.3957 6.62796 11.6043 6.62796 11.1161 7.11612C10.628 7.60427 10.628 8.39573 11.1161 8.88388C11.6043 9.37204 12.3957 9.37204 12.8839 8.88388C13.372 8.39573 13.372 7.60427 12.8839 7.11612Z" fill="#A3A3A3"/>
</svg>
